<svg id="visual" viewBox="0 0 900 600" width="900" height="600" xmlns="http://www.w3.org/2000/svg" xmlns:xlink="http://www.w3.org/1999/xlink" version="1.1"><rect x="0" y="0" width="900" height="600" fill="#84c1f0"></rect><defs><linearGradient id="grad1_0" x1="33.3%" y1="0%" x2="100%" y2="100%"><stop offset="20%" stop-color="#3c4efa" stop-opacity="1"></stop><stop offset="80%" stop-color="#3c4efa" stop-opacity="1"></stop></linearGradient></defs><defs><linearGradient id="grad1_1" x1="33.3%" y1="0%" x2="100%" y2="100%"><stop offset="20%" stop-color="#3c4efa" stop-opacity="1"></stop><stop offset="80%" stop-color="#0091ff" stop-opacity="1"></stop></linearGradient></defs><defs><linearGradient id="grad1_2" x1="33.3%" y1="0%" x2="100%" y2="100%"><stop offset="20%" stop-color="#84c1f0" stop-opacity="1"></stop><stop offset="80%" stop-color="#0091ff" stop-opacity="1"></stop></linearGradient></defs><defs><linearGradient id="grad2_0" x1="0%" y1="0%" x2="66.7%" y2="100%"><stop offset="20%" stop-color="#3c4efa" stop-opacity="1"></stop><stop offset="80%" stop-color="#3c4efa" stop-opacity="1"></stop></linearGradient></defs><defs><linearGradient id="grad2_1" x1="0%" y1="0%" x2="66.7%" y2="100%"><stop offset="20%" stop-color="#0091ff" stop-opacity="1"></stop><stop offset="80%" stop-color="#3c4efa" stop-opacity="1"></stop></linearGradient></defs><defs><linearGradient id="grad2_2" x1="0%" y1="0%" x2="66.7%" y2="100%"><stop offset="20%" stop-color="#0091ff" stop-opacity="1"></stop><stop offset="80%" stop-color="#84c1f0" stop-opacity="1"></stop></linearGradient></defs><g transform="translate(900, 0)"><path d="M0 297.5C-29.8 290.3 -59.6 283.1 -89.3 274.9C-119 266.6 -148.6 257.2 -174.8 240.6C-201 224.1 -223.8 200.6 -239.5 174C-255.1 147.4 -263.5 117.9 -272 88.4C-280.5 58.9 -289 29.4 -297.5 0L0 0Z" fill="#4daafa"></path><path d="M0 198.3C-19.9 193.5 -39.7 188.8 -59.5 183.2C-79.3 177.7 -99.1 171.4 -116.6 160.4C-134 149.4 -149.2 133.7 -159.6 116C-170.1 98.3 -175.7 78.6 -181.3 58.9C-187 39.3 -192.6 19.6 -198.3 0L0 0Z" fill="#0073ff"></path><path d="M0 99.2C-9.9 96.8 -19.9 94.4 -29.8 91.6C-39.7 88.9 -49.5 85.7 -58.3 80.2C-67 74.7 -74.6 66.9 -79.8 58C-85 49.1 -87.8 39.3 -90.7 29.5C-93.5 19.6 -96.3 9.8 -99.2 0L0 0Z" fill="#3c4efa"></path></g><g transform="translate(0, 600)"><path d="M0 -297.5C29.6 -288.9 59.1 -280.4 88.1 -271.1C117 -261.8 145.3 -251.7 171.6 -236.2C198 -220.8 222.4 -199.9 240.6 -174.8C258.9 -149.8 271.2 -120.7 279.6 -90.9C288.1 -61 292.8 -30.5 297.5 0L0 0Z" fill="#4daafa"></path><path d="M0 -198.3C19.7 -192.6 39.4 -186.9 58.7 -180.7C78 -174.5 96.9 -167.8 114.4 -157.5C132 -147.2 148.2 -133.2 160.4 -116.6C172.6 -99.9 180.8 -80.5 186.4 -60.6C192 -40.7 195.2 -20.3 198.3 0L0 0Z" fill="#0073ff"></path><path d="M0 -99.2C9.9 -96.3 19.7 -93.5 29.4 -90.4C39 -87.3 48.4 -83.9 57.2 -78.7C66 -73.6 74.1 -66.6 80.2 -58.3C86.3 -49.9 90.4 -40.2 93.2 -30.3C96 -20.3 97.6 -10.2 99.2 0L0 0Z" fill="#3c4efa"></path></g></svg>